<svg width="60" height="60" viewBox="0 0 60 60" fill="none" xmlns="http://www.w3.org/2000/svg">
<rect width="60" height="60" rx="30" fill="#ECEEFF"/>
<path fill-rule="evenodd" clip-rule="evenodd" d="M30 16C22.268 16 16 22.268 16 30C16 37.732 22.268 44 30 44C37.732 44 44 37.732 44 30C44 22.268 37.732 16 30 16ZM19.1528 27.2C18.9225 28.0949 18.8 29.0332 18.8 30C18.8 30.9668 18.9225 31.9051 19.1528 32.8H23.132C23.0452 31.8929 23 30.956 23 30C23 29.044 23.0452 28.1071 23.132 27.2H19.1528ZM20.2984 24.4H23.5504C23.8472 22.9671 24.2567 21.6563 24.7609 20.5219C24.8452 20.332 24.9329 20.1457 25.0239 19.9634C23.0461 20.9459 21.3999 22.4957 20.2984 24.4ZM25.9462 27.2C25.8511 28.0926 25.8 29.0301 25.8 30C25.8 30.9699 25.8511 31.9074 25.9462 32.8H34.0538C34.1489 31.9074 34.2 30.9699 34.2 30C34.2 29.0301 34.1489 28.0926 34.0538 27.2H25.9462ZM33.5817 24.4H26.4183C26.6614 23.3747 26.9673 22.4516 27.3195 21.659C27.7787 20.6259 28.2892 19.8765 28.7854 19.4043C29.2743 18.939 29.6823 18.8 30 18.8C30.3177 18.8 30.7257 18.939 31.2146 19.4043C31.7108 19.8765 32.2213 20.6259 32.6805 21.659C33.0327 22.4516 33.3386 23.3747 33.5817 24.4ZM36.868 27.2C36.9548 28.1071 37 29.044 37 30C37 30.956 36.9548 31.8929 36.868 32.8H40.8472C41.0775 31.9051 41.2 30.9668 41.2 30C41.2 29.0332 41.0775 28.0949 40.8472 27.2H36.868ZM39.7016 24.4H36.4496C36.1528 22.9671 35.7433 21.6563 35.2391 20.5219C35.1548 20.332 35.0671 20.1457 34.9761 19.9634C36.9539 20.9459 38.6001 22.4957 39.7016 24.4ZM25.0239 40.0366C23.0461 39.0541 21.3999 37.5043 20.2984 35.6H23.5504C23.8472 37.0329 24.2567 38.3437 24.7609 39.4781C24.8452 39.668 24.9329 39.8543 25.0239 40.0366ZM27.3195 38.341C26.9673 37.5484 26.6614 36.6253 26.4183 35.6H33.5817C33.3386 36.6253 33.0327 37.5484 32.6805 38.341C32.2213 39.3741 31.7108 40.1235 31.2146 40.5957C30.7257 41.061 30.3177 41.2 30 41.2C29.6823 41.2 29.2743 41.061 28.7854 40.5957C28.2892 40.1235 27.7787 39.3741 27.3195 38.341ZM35.2391 39.4781C35.7433 38.3437 36.1528 37.0329 36.4496 35.6H39.7016C38.6001 37.5043 36.9539 39.0541 34.9761 40.0366C35.0671 39.8543 35.1548 39.668 35.2391 39.4781Z" fill="#3E4581"/>
<path fill-rule="evenodd" clip-rule="evenodd" d="M30 16C22.268 16 16 22.268 16 30C16 37.732 22.268 44 30 44C37.732 44 44 37.732 44 30C44 22.268 37.732 16 30 16ZM19.1528 27.2C18.9225 28.0949 18.8 29.0332 18.8 30C18.8 30.9668 18.9225 31.9051 19.1528 32.8H23.132C23.0452 31.8929 23 30.956 23 30C23 29.044 23.0452 28.1071 23.132 27.2H19.1528ZM20.2984 24.4H23.5504C23.8472 22.9671 24.2567 21.6563 24.7609 20.5219C24.8452 20.332 24.9329 20.1457 25.0239 19.9634C23.0461 20.9459 21.3999 22.4957 20.2984 24.4ZM25.9462 27.2C25.8511 28.0926 25.8 29.0301 25.8 30C25.8 30.9699 25.8511 31.9074 25.9462 32.8H34.0538C34.1489 31.9074 34.2 30.9699 34.2 30C34.2 29.0301 34.1489 28.0926 34.0538 27.2H25.9462ZM33.5817 24.4H26.4183C26.6614 23.3747 26.9673 22.4516 27.3195 21.659C27.7787 20.6259 28.2892 19.8765 28.7854 19.4043C29.2743 18.939 29.6823 18.8 30 18.8C30.3177 18.8 30.7257 18.939 31.2146 19.4043C31.7108 19.8765 32.2213 20.6259 32.6805 21.659C33.0327 22.4516 33.3386 23.3747 33.5817 24.4ZM36.868 27.2C36.9548 28.1071 37 29.044 37 30C37 30.956 36.9548 31.8929 36.868 32.8H40.8472C41.0775 31.9051 41.2 30.9668 41.2 30C41.2 29.0332 41.0775 28.0949 40.8472 27.2H36.868ZM39.7016 24.4H36.4496C36.1528 22.9671 35.7433 21.6563 35.2391 20.5219C35.1548 20.332 35.0671 20.1457 34.9761 19.9634C36.9539 20.9459 38.6001 22.4957 39.7016 24.4ZM25.0239 40.0366C23.0461 39.0541 21.3999 37.5043 20.2984 35.6H23.5504C23.8472 37.0329 24.2567 38.3437 24.7609 39.4781C24.8452 39.668 24.9329 39.8543 25.0239 40.0366ZM27.3195 38.341C26.9673 37.5484 26.6614 36.6253 26.4183 35.6H33.5817C33.3386 36.6253 33.0327 37.5484 32.6805 38.341C32.2213 39.3741 31.7108 40.1235 31.2146 40.5957C30.7257 41.061 30.3177 41.2 30 41.2C29.6823 41.2 29.2743 41.061 28.7854 40.5957C28.2892 40.1235 27.7787 39.3741 27.3195 38.341ZM35.2391 39.4781C35.7433 38.3437 36.1528 37.0329 36.4496 35.6H39.7016C38.6001 37.5043 36.9539 39.0541 34.9761 40.0366C35.0671 39.8543 35.1548 39.668 35.2391 39.4781Z" fill="url(#paint0_linear_107_72)"/>
<defs>
<linearGradient id="paint0_linear_107_72" x1="16.5016" y1="18.1778" x2="45.5049" y2="18.1611" gradientUnits="userSpaceOnUse">
<stop stop-color="#AE67FA"/>
<stop offset="0.973958" stop-color="#F49867"/>
</linearGradient>
</defs>
</svg>
