<svg width="60" height="60" viewBox="0 0 60 60" fill="none" xmlns="http://www.w3.org/2000/svg">
<rect width="60" height="60" rx="30" fill="#ECEEFF"/>
<path fill-rule="evenodd" clip-rule="evenodd" d="M20.5 18.758C19.6716 18.758 19 19.3754 19 20.137V39.443C19 40.2046 19.6716 40.822 20.5 40.822H38.5C39.3284 40.822 40 40.2046 40 39.443V29.79C40 29.0284 40.6716 28.411 41.5 28.411C42.3284 28.411 43 29.0284 43 29.79V39.443C43 41.7278 40.9853 43.58 38.5 43.58H20.5C18.0147 43.58 16 41.7278 16 39.443V20.137C16 17.8522 18.0147 16 20.5 16H29.5C30.3284 16 31 16.6174 31 17.379C31 18.1406 30.3284 18.758 29.5 18.758H20.5Z" fill="#3E4581"/>
<path fill-rule="evenodd" clip-rule="evenodd" d="M20.5 18.758C19.6716 18.758 19 19.3754 19 20.137V39.443C19 40.2046 19.6716 40.822 20.5 40.822H38.5C39.3284 40.822 40 40.2046 40 39.443V29.79C40 29.0284 40.6716 28.411 41.5 28.411C42.3284 28.411 43 29.0284 43 29.79V39.443C43 41.7278 40.9853 43.58 38.5 43.58H20.5C18.0147 43.58 16 41.7278 16 39.443V20.137C16 17.8522 18.0147 16 20.5 16H29.5C30.3284 16 31 16.6174 31 17.379C31 18.1406 30.3284 18.758 29.5 18.758H20.5Z" fill="url(#paint0_linear_107_82)"/>
<path fill-rule="evenodd" clip-rule="evenodd" d="M23.5961 29.3266C23.3666 29.5376 23.2177 29.8113 23.1718 30.1067L22.4647 34.6572C22.3233 35.5673 23.1718 36.3474 24.1618 36.2173L29.1115 35.5673C29.4328 35.5251 29.7305 35.3882 29.96 35.1772L41.2737 24.7762C43.0311 23.1606 43.0311 20.5412 41.2737 18.9256C39.5164 17.31 36.6671 17.31 34.9098 18.9256L23.5961 29.3266ZM35.9704 25.7513L28.1923 32.902L25.7174 33.227L26.0709 30.9518L33.8491 23.8011L35.9704 25.7513ZM38.0917 23.8011L35.9704 21.8509L37.0311 20.8758C37.6169 20.3372 38.5666 20.3372 39.1524 20.8758C39.7382 21.4143 39.7382 22.2874 39.1524 22.826L38.0917 23.8011Z" fill="#3E4581"/>
<path fill-rule="evenodd" clip-rule="evenodd" d="M23.5961 29.3266C23.3666 29.5376 23.2177 29.8113 23.1718 30.1067L22.4647 34.6572C22.3233 35.5673 23.1718 36.3474 24.1618 36.2173L29.1115 35.5673C29.4328 35.5251 29.7305 35.3882 29.96 35.1772L41.2737 24.7762C43.0311 23.1606 43.0311 20.5412 41.2737 18.9256C39.5164 17.31 36.6671 17.31 34.9098 18.9256L23.5961 29.3266ZM35.9704 25.7513L28.1923 32.902L25.7174 33.227L26.0709 30.9518L33.8491 23.8011L35.9704 25.7513ZM38.0917 23.8011L35.9704 21.8509L37.0311 20.8758C37.6169 20.3372 38.5666 20.3372 39.1524 20.8758C39.7382 21.4143 39.7382 22.2874 39.1524 22.826L38.0917 23.8011Z" fill="url(#paint1_linear_107_82)"/>
<defs>
<linearGradient id="paint0_linear_107_82" x1="16.4837" y1="18.1451" x2="44.4512" y2="18.1293" gradientUnits="userSpaceOnUse">
<stop stop-color="#AE67FA"/>
<stop offset="0.973958" stop-color="#F49867"/>
</linearGradient>
<linearGradient id="paint1_linear_107_82" x1="22.8101" y1="19.1541" x2="43.6744" y2="19.1411" gradientUnits="userSpaceOnUse">
<stop stop-color="#AE67FA"/>
<stop offset="0.973958" stop-color="#F49867"/>
</linearGradient>
</defs>
</svg>
