<svg width="60" height="60" viewBox="0 0 60 60" fill="none" xmlns="http://www.w3.org/2000/svg">
<rect width="60" height="60" rx="30" fill="#ECEEFF"/>
<path fill-rule="evenodd" clip-rule="evenodd" d="M29.0959 18.7455L21.4293 21.4223C20.9075 21.6045 20.5556 22.116 20.5556 22.6921V29.8362C20.5556 32.5474 21.852 34.8624 23.73 36.8089C25.6119 38.7595 27.8776 40.1206 29.2788 40.8467C29.424 40.922 29.576 40.922 29.7212 40.8467C31.1224 40.1206 33.388 38.7595 35.27 36.8089C37.148 34.8624 38.4444 32.5474 38.4444 29.8362V22.6921C38.4444 22.116 38.0925 21.6045 37.5707 21.4223L29.9041 18.7455C29.6418 18.6539 29.3582 18.6539 29.0959 18.7455ZM20.6211 18.8829C19.0558 19.4294 18 20.9638 18 22.6921V29.8362C18 37.2002 25.1047 41.6701 28.1455 43.246C29.0049 43.6914 29.9951 43.6914 30.8545 43.246C33.8953 41.6701 41 37.2002 41 29.8362V22.6921C41 20.9638 39.9442 19.4294 38.3789 18.8829L30.7122 16.206C29.9253 15.9313 29.0746 15.9313 28.2878 16.206L20.6211 18.8829Z" fill="#3E4581"/>
<path fill-rule="evenodd" clip-rule="evenodd" d="M29.0959 18.7455L21.4293 21.4223C20.9075 21.6045 20.5556 22.116 20.5556 22.6921V29.8362C20.5556 32.5474 21.852 34.8624 23.73 36.8089C25.6119 38.7595 27.8776 40.1206 29.2788 40.8467C29.424 40.922 29.576 40.922 29.7212 40.8467C31.1224 40.1206 33.388 38.7595 35.27 36.8089C37.148 34.8624 38.4444 32.5474 38.4444 29.8362V22.6921C38.4444 22.116 38.0925 21.6045 37.5707 21.4223L29.9041 18.7455C29.6418 18.6539 29.3582 18.6539 29.0959 18.7455ZM20.6211 18.8829C19.0558 19.4294 18 20.9638 18 22.6921V29.8362C18 37.2002 25.1047 41.6701 28.1455 43.246C29.0049 43.6914 29.9951 43.6914 30.8545 43.246C33.8953 41.6701 41 37.2002 41 29.8362V22.6921C41 20.9638 39.9442 19.4294 38.3789 18.8829L30.7122 16.206C29.9253 15.9313 29.0746 15.9313 28.2878 16.206L20.6211 18.8829Z" fill="url(#paint0_linear_107_24)"/>
<defs>
<linearGradient id="paint0_linear_107_24" x1="18.4121" y1="18.1451" x2="42.2362" y2="18.1337" gradientUnits="userSpaceOnUse">
<stop stop-color="#AE67FA"/>
<stop offset="0.973958" stop-color="#F49867"/>
</linearGradient>
</defs>
</svg>
