<svg width="21" height="21" fill="none" xmlns="http://www.w3.org/2000/svg"><path d="M18.709 1.226a1.044 1.044 0 1 1 1.47 1.482L3.13 19.614a1.044 1.044 0 0 1-1.47-1.482L18.71 1.225z" fill="url(#a)"/><path d="M18.709 1.226a1.044 1.044 0 1 1 1.47 1.482L3.13 19.614a1.044 1.044 0 0 1-1.47-1.482L18.71 1.225z" fill="url(#b)"/><path d="M20.114 18.209a1.044 1.044 0 0 1-1.482 1.47L1.726 2.63a1.044 1.044 0 0 1 1.482-1.47L20.115 18.21z" fill="url(#c)"/><path d="M20.114 18.209a1.044 1.044 0 0 1-1.482 1.47L1.726 2.63a1.044 1.044 0 0 1 1.482-1.47L20.115 18.21z" fill="url(#d)"/><defs><linearGradient id="a" x1="19.45" y1=".491" x2="21.302" y2="2.448" gradientUnits="userSpaceOnUse"><stop stop-color="#4EF0F0"/><stop offset="1" stop-color="#05C580"/></linearGradient><linearGradient id="b" x1="18.035" y1="1.947" x2="19.558" y2="3.482" gradientUnits="userSpaceOnUse"><stop stop-color="#AE67FA"/><stop offset=".974" stop-color="#F49867"/></linearGradient><linearGradient id="c" x1="20.849" y1="18.95" x2="18.892" y2="20.802" gradientUnits="userSpaceOnUse"><stop stop-color="#4EF0F0"/><stop offset="1" stop-color="#05C580"/></linearGradient><linearGradient id="d" x1="19.393" y1="17.535" x2="17.858" y2="19.058" gradientUnits="userSpaceOnUse"><stop stop-color="#AE67FA"/><stop offset=".974" stop-color="#F49867"/></linearGradient></defs></svg>