<svg width="13" height="12" viewBox="0 0 13 12" fill="none" xmlns="http://www.w3.org/2000/svg">
<path d="M6.54661 0C3.1426 0 0.380859 2.6875 0.380859 6C0.380859 9.3125 3.1426 12 6.54661 12C9.95061 12 12.7124 9.3125 12.7124 6C12.7124 2.6875 9.95061 0 6.54661 0ZM9.71939 4.55L6.09702 8.0875C5.98141 8.2 5.81442 8.275 5.64743 8.275C5.48044 8.275 5.31346 8.2125 5.19785 8.0875L3.37381 6.3125C3.11691 6.0625 3.11691 5.675 3.37381 5.425C3.63072 5.175 4.02893 5.175 4.28583 5.425L5.64743 6.75L8.82022 3.6625C9.07713 3.4125 9.47533 3.4125 9.73224 3.6625C9.9763 3.9125 9.9763 4.3 9.71939 4.55Z" fill="#AE67FA"/>
</svg>
