<svg width="25" height="16" fill="none" xmlns="http://www.w3.org/2000/svg"><path d="M24 0a1 1 0 1 1 0 2H1a1 1 0 0 1 0-2h23z" fill="url(#a)"/><path d="M24 0a1 1 0 1 1 0 2H1a1 1 0 0 1 0-2h23z" fill="url(#b)"/><path d="M24 7a1 1 0 1 1 0 2H1a1 1 0 0 1 0-2h23z" fill="url(#c)"/><path d="M24 7a1 1 0 1 1 0 2H1a1 1 0 0 1 0-2h23z" fill="url(#d)"/><path d="M24 14a1 1 0 1 1 0 2H1a1 1 0 1 1 0-2h23z" fill="url(#e)"/><path d="M24 14a1 1 0 1 1 0 2H1a1 1 0 1 1 0-2h23z" fill="url(#f)"/><defs><linearGradient id="a" x1="25" y1="0" x2="24.94" y2="2.581" gradientUnits="userSpaceOnUse"><stop stop-color="#4EF0F0"/><stop offset="1" stop-color="#05C580"/></linearGradient><linearGradient id="b" x1="23.056" y1=".036" x2="23.056" y2="2.107" gradientUnits="userSpaceOnUse"><stop stop-color="#AE67FA"/><stop offset=".974" stop-color="#F49867"/></linearGradient><linearGradient id="c" x1="25" y1="7" x2="24.94" y2="9.581" gradientUnits="userSpaceOnUse"><stop stop-color="#4EF0F0"/><stop offset="1" stop-color="#05C580"/></linearGradient><linearGradient id="d" x1="23.056" y1="7.036" x2="23.056" y2="9.107" gradientUnits="userSpaceOnUse"><stop stop-color="#AE67FA"/><stop offset=".974" stop-color="#F49867"/></linearGradient><linearGradient id="e" x1="25" y1="14" x2="24.94" y2="16.581" gradientUnits="userSpaceOnUse"><stop stop-color="#4EF0F0"/><stop offset="1" stop-color="#05C580"/></linearGradient><linearGradient id="f" x1="23.056" y1="14.036" x2="23.056" y2="16.108" gradientUnits="userSpaceOnUse"><stop stop-color="#AE67FA"/><stop offset=".974" stop-color="#F49867"/></linearGradient></defs></svg>