<svg width="120" height="34" fill="none" xmlns="http://www.w3.org/2000/svg"><path d="M46.109 23V11.364h4.66c.855 0 1.57.127 2.141.38.572.254 1.002.606 1.29 1.057.288.447.432.962.432 1.546 0 .454-.091.854-.273 1.199-.182.34-.432.62-.75.84-.314.216-.674.37-1.08.46v.114a2.657 2.657 0 0 1 2.193 1.347c.243.413.364.905.364 1.477 0 .617-.153 1.169-.46 1.654-.303.48-.752.861-1.346 1.142-.595.28-1.328.42-2.2.42H46.11zm2.46-2.011h2.006c.685 0 1.185-.131 1.5-.392.314-.266.471-.618.471-1.057 0-.322-.077-.606-.232-.852a1.582 1.582 0 0 0-.665-.58c-.284-.14-.623-.21-1.017-.21h-2.063v3.09zm0-4.756h1.824c.337 0 .636-.059.898-.176.265-.121.473-.292.625-.511.155-.22.233-.483.233-.79 0-.42-.15-.76-.45-1.017-.294-.258-.715-.387-1.26-.387h-1.87v2.881zM56.642 23v-8.727h2.346v1.523h.091c.16-.542.426-.951.801-1.228.375-.28.807-.42 1.296-.42a3.648 3.648 0 0 1 .761.085v2.148a3.158 3.158 0 0 0-.471-.091 4.24 4.24 0 0 0-.552-.04c-.356 0-.674.078-.954.233a1.715 1.715 0 0 0-.66.636c-.158.273-.238.587-.238.944V23h-2.42zm8.785.165c-.557 0-1.053-.097-1.488-.29a2.397 2.397 0 0 1-1.035-.87c-.25-.386-.375-.867-.375-1.442 0-.485.09-.892.267-1.222.179-.33.421-.595.728-.796.307-.2.655-.352 1.045-.454a7.972 7.972 0 0 1 1.239-.216 31.4 31.4 0 0 0 1.227-.148c.31-.049.536-.12.676-.216a.475.475 0 0 0 .21-.42v-.034c0-.36-.113-.638-.34-.835-.224-.197-.542-.296-.955-.296-.436 0-.782.097-1.04.29-.257.19-.428.428-.511.716l-2.239-.182c.114-.53.337-.989.67-1.375.334-.39.764-.69 1.29-.898.53-.212 1.144-.318 1.841-.318.485 0 .95.057 1.392.17.447.114.843.29 1.188.529.349.239.623.545.824.92.2.372.301.817.301 1.336V23h-2.296v-1.21h-.068c-.14.273-.327.513-.562.721a2.603 2.603 0 0 1-.847.483c-.33.114-.71.17-1.142.17zm.693-1.67c.356 0 .67-.07.944-.21a1.67 1.67 0 0 0 .642-.58c.155-.243.233-.517.233-.824v-.927c-.076.05-.18.095-.313.137a5.704 5.704 0 0 1-.437.108c-.163.03-.326.059-.49.085l-.442.063a2.994 2.994 0 0 0-.745.198 1.19 1.19 0 0 0-.494.37.9.9 0 0 0-.176.568c0 .33.12.581.358.756.242.17.55.255.92.255zm8.52-3.54V23h-2.42v-8.727h2.307v1.54h.102c.193-.508.517-.91.971-1.205.455-.3 1.006-.449 1.654-.449.606 0 1.134.133 1.585.398.45.265.801.644 1.051 1.136.25.489.375 1.072.375 1.75V23h-2.42v-5.125c.004-.534-.133-.95-.41-1.25-.276-.303-.657-.454-1.141-.454-.326 0-.614.07-.864.21-.246.14-.44.344-.58.613-.136.265-.206.585-.21.96zm10.749 5.187c-.663 0-1.263-.17-1.801-.511-.534-.345-.959-.85-1.273-1.517-.31-.67-.466-1.493-.466-2.466 0-1 .161-1.832.483-2.495.322-.666.75-1.164 1.284-1.494a3.29 3.29 0 0 1 1.767-.5c.489 0 .896.083 1.222.25.33.163.594.367.795.614.205.242.36.48.466.716h.074v-4.375h2.415V23h-2.387v-1.398h-.102a3.121 3.121 0 0 1-.483.722c-.204.235-.471.43-.801.585-.326.155-.723.233-1.193.233zm.767-1.926c.39 0 .72-.106.988-.318.273-.216.482-.517.625-.904.148-.386.222-.839.222-1.358 0-.519-.072-.97-.216-1.352-.144-.383-.352-.678-.625-.886-.273-.209-.604-.313-.994-.313-.398 0-.733.108-1.006.324-.273.216-.479.515-.62.898-.14.382-.21.826-.21 1.33 0 .507.07.956.21 1.346.145.386.351.69.62.909.273.216.608.324 1.006.324zm13.45-4.455-2.216.137c-.038-.19-.119-.36-.244-.512a1.298 1.298 0 0 0-.494-.369 1.68 1.68 0 0 0-.722-.142c-.375 0-.691.08-.949.239-.257.155-.386.363-.386.625 0 .208.083.384.25.528.166.144.453.26.858.347l1.58.318c.848.174 1.48.454 1.897.84.417.387.625.895.625 1.524 0 .571-.169 1.073-.506 1.505-.333.432-.791.77-1.375 1.012-.58.238-1.248.358-2.005.358-1.156 0-2.076-.241-2.762-.722a2.812 2.812 0 0 1-1.198-1.977l2.38-.125c.072.352.246.62.523.806.276.182.63.273 1.062.273.425 0 .765-.081 1.023-.244.261-.167.394-.38.398-.642a.668.668 0 0 0-.279-.54c-.181-.144-.462-.254-.84-.33l-1.512-.3c-.852-.171-1.487-.467-1.903-.887-.413-.42-.62-.957-.62-1.608 0-.56.152-1.044.455-1.449.307-.405.737-.718 1.29-.937.556-.22 1.208-.33 1.954-.33 1.103 0 1.97.233 2.603.699.636.466 1.007 1.1 1.113 1.903zm3.138 6.387c-.375 0-.697-.133-.966-.398a1.328 1.328 0 0 1-.398-.966c0-.371.133-.69.398-.954.269-.266.591-.398.966-.398.364 0 .682.132.955.398.272.265.409.583.409.954 0 .25-.065.48-.194.688-.125.204-.289.369-.494.494a1.3 1.3 0 0 1-.676.182zm3.351-.148v-8.727h2.42V23h-2.42zm1.216-9.852c-.36 0-.669-.12-.926-.358a1.16 1.16 0 0 1-.381-.87c0-.333.127-.619.381-.857.257-.243.566-.364.926-.364.36 0 .666.121.92.364.258.238.387.524.387.857 0 .338-.129.627-.387.87-.254.238-.56.358-.92.358zm7.086 10.023c-.882 0-1.645-.188-2.289-.563a3.84 3.84 0 0 1-1.483-1.58c-.349-.678-.523-1.464-.523-2.357 0-.902.174-1.69.523-2.364a3.795 3.795 0 0 1 1.483-1.58c.644-.379 1.407-.568 2.289-.568.883 0 1.644.19 2.284.568a3.79 3.79 0 0 1 1.489 1.58c.349.674.523 1.462.523 2.364 0 .893-.174 1.68-.523 2.357a3.835 3.835 0 0 1-1.489 1.58c-.64.375-1.401.563-2.284.563zm.012-1.875c.401 0 .736-.114 1.005-.341.269-.231.472-.546.608-.944.141-.397.211-.85.211-1.358 0-.507-.07-.96-.211-1.357-.136-.398-.339-.713-.608-.944-.269-.23-.604-.346-1.005-.346-.406 0-.746.115-1.023.346-.273.231-.479.546-.619.944-.137.397-.205.85-.205 1.357 0 .508.068.96.205 1.358.14.398.346.713.619.944.277.227.617.34 1.023.34z" fill="#3E4581"/><path fill-rule="evenodd" clip-rule="evenodd" d="M30.245 8.5 15.393 0 .541 8.5v17L15.393 34l14.852-8.5v-17zm-5.86 8.689-4.657-7.772-8.993-.188L6.4 16.81l4.658 7.772 8.993.188 4.335-7.582z" fill="url(#a)"/><path fill-rule="evenodd" clip-rule="evenodd" d="M30.245 8.5 15.393 0 .541 8.5v17L15.393 34l14.852-8.5v-17zm-5.86 8.689-4.657-7.772-8.993-.188L6.4 16.81l4.658 7.772 8.993.188 4.335-7.582z" fill="url(#b)"/><defs><linearGradient id="a" x1=".541" y1="0" x2="36.563" y2="9.163" gradientUnits="userSpaceOnUse"><stop stop-color="#4EF0F0"/><stop offset="1" stop-color="#05C580"/></linearGradient><linearGradient id="b" x1="1.073" y1="2.644" x2="31.842" y2="2.629" gradientUnits="userSpaceOnUse"><stop stop-color="#AE67FA"/><stop offset=".974" stop-color="#F49867"/></linearGradient></defs></svg>