<svg width="60" height="60" viewBox="0 0 60 60" fill="none" xmlns="http://www.w3.org/2000/svg">
<rect width="60" height="60" rx="30" fill="#ECEEFF"/>
<path fill-rule="evenodd" clip-rule="evenodd" d="M30 19.7368C24.2562 19.7368 19.6 24.6381 19.6 30.6842H22.2C24.3539 30.6842 26.1 32.5222 26.1 34.7895V38.8947C26.1 41.162 24.3539 43 22.2 43H20.9C18.7461 43 17 41.162 17 38.8947V30.6842C17 23.1266 22.8203 17 30 17C37.1797 17 43 23.1266 43 30.6842V38.8947C43 41.162 41.2539 43 39.1 43H37.8C35.6461 43 33.9 41.162 33.9 38.8947V34.7895C33.9 32.5222 35.6461 30.6842 37.8 30.6842H40.4C40.4 24.6381 35.7438 19.7368 30 19.7368ZM40.4 33.4211H37.8C37.082 33.4211 36.5 34.0337 36.5 34.7895V38.8947C36.5 39.6505 37.082 40.2632 37.8 40.2632H39.1C39.818 40.2632 40.4 39.6505 40.4 38.8947V33.4211ZM19.6 33.4211V38.8947C19.6 39.6505 20.182 40.2632 20.9 40.2632H22.2C22.918 40.2632 23.5 39.6505 23.5 38.8947V34.7895C23.5 34.0337 22.918 33.4211 22.2 33.4211H19.6Z" fill="#3E4581"/>
<path fill-rule="evenodd" clip-rule="evenodd" d="M30 19.7368C24.2562 19.7368 19.6 24.6381 19.6 30.6842H22.2C24.3539 30.6842 26.1 32.5222 26.1 34.7895V38.8947C26.1 41.162 24.3539 43 22.2 43H20.9C18.7461 43 17 41.162 17 38.8947V30.6842C17 23.1266 22.8203 17 30 17C37.1797 17 43 23.1266 43 30.6842V38.8947C43 41.162 41.2539 43 39.1 43H37.8C35.6461 43 33.9 41.162 33.9 38.8947V34.7895C33.9 32.5222 35.6461 30.6842 37.8 30.6842H40.4C40.4 24.6381 35.7438 19.7368 30 19.7368ZM40.4 33.4211H37.8C37.082 33.4211 36.5 34.0337 36.5 34.7895V38.8947C36.5 39.6505 37.082 40.2632 37.8 40.2632H39.1C39.818 40.2632 40.4 39.6505 40.4 38.8947V33.4211ZM19.6 33.4211V38.8947C19.6 39.6505 20.182 40.2632 20.9 40.2632H22.2C22.918 40.2632 23.5 39.6505 23.5 38.8947V34.7895C23.5 34.0337 22.918 33.4211 22.2 33.4211H19.6Z" fill="url(#paint0_linear_107_36)"/>
<defs>
<linearGradient id="paint0_linear_107_36" x1="17.4658" y1="19.0222" x2="44.3975" y2="19.0067" gradientUnits="userSpaceOnUse">
<stop stop-color="#AE67FA"/>
<stop offset="0.973958" stop-color="#F49867"/>
</linearGradient>
</defs>
</svg>
