<svg width="60" height="60" viewBox="0 0 60 60" fill="none" xmlns="http://www.w3.org/2000/svg">
<rect width="60" height="60" rx="30" fill="#ECEEFF"/>
<path d="M35.7559 21.8506C36.313 21.8506 36.8578 21.6903 37.3214 21.39L41.4004 18.7473V31.45C41.4004 32.2074 40.7686 32.8213 39.9893 32.8213H38.5781V35.564H39.9893C42.3273 35.564 44.2227 33.7221 44.2227 31.45V18.7473C44.2227 16.5567 41.7104 15.2501 39.8349 16.4652L35.7559 19.1079H25.8779C23.5399 19.1079 21.6445 20.9498 21.6445 23.2219V24.5933H24.4668V23.2219C24.4668 22.4646 25.0986 21.8506 25.8779 21.8506H35.7559Z" fill="#3E4581"/>
<path d="M35.7559 21.8506C36.313 21.8506 36.8578 21.6903 37.3214 21.39L41.4004 18.7473V31.45C41.4004 32.2074 40.7686 32.8213 39.9893 32.8213H38.5781V35.564H39.9893C42.3273 35.564 44.2227 33.7221 44.2227 31.45V18.7473C44.2227 16.5567 41.7104 15.2501 39.8349 16.4652L35.7559 19.1079H25.8779C23.5399 19.1079 21.6445 20.9498 21.6445 23.2219V24.5933H24.4668V23.2219C24.4668 22.4646 25.0986 21.8506 25.8779 21.8506H35.7559Z" fill="url(#paint0_linear_107_15)"/>
<path fill-rule="evenodd" clip-rule="evenodd" d="M21.2926 38.9077C21.793 38.5186 22.4148 38.3067 23.0557 38.3067H34.3447C35.1241 38.3067 35.7559 37.6927 35.7559 36.9353V28.7073C35.7559 27.9499 35.1241 27.3359 34.3447 27.3359H20.2334C19.4541 27.3359 18.8223 27.9499 18.8223 28.7073V40.8283L21.2926 38.9077ZM23.0557 41.0494H34.3447C36.6828 41.0494 38.5781 39.2075 38.5781 36.9353V28.7073C38.5781 26.4352 36.6828 24.5933 34.3447 24.5933H20.2334C17.8954 24.5933 16 26.4352 16 28.7073V40.8283C16 43.128 18.7374 44.4066 20.5853 42.9699L23.0557 41.0494Z" fill="#3E4581"/>
<path fill-rule="evenodd" clip-rule="evenodd" d="M21.2926 38.9077C21.793 38.5186 22.4148 38.3067 23.0557 38.3067H34.3447C35.1241 38.3067 35.7559 37.6927 35.7559 36.9353V28.7073C35.7559 27.9499 35.1241 27.3359 34.3447 27.3359H20.2334C19.4541 27.3359 18.8223 27.9499 18.8223 28.7073V40.8283L21.2926 38.9077ZM23.0557 41.0494H34.3447C36.6828 41.0494 38.5781 39.2075 38.5781 36.9353V28.7073C38.5781 26.4352 36.6828 24.5933 34.3447 24.5933H20.2334C17.8954 24.5933 16 26.4352 16 28.7073V40.8283C16 43.128 18.7374 44.4066 20.5853 42.9699L23.0557 41.0494Z" fill="url(#paint1_linear_107_15)"/>
<path fill-rule="evenodd" clip-rule="evenodd" d="M21.6445 32.8215C21.6445 32.0642 22.2763 31.4502 23.0557 31.4502H31.5225C32.3018 31.4502 32.9336 32.0642 32.9336 32.8215C32.9336 33.5789 32.3018 34.1929 31.5225 34.1929H23.0557C22.2763 34.1929 21.6445 33.5789 21.6445 32.8215Z" fill="#3E4581"/>
<path fill-rule="evenodd" clip-rule="evenodd" d="M21.6445 32.8215C21.6445 32.0642 22.2763 31.4502 23.0557 31.4502H31.5225C32.3018 31.4502 32.9336 32.0642 32.9336 32.8215C32.9336 33.5789 32.3018 34.1929 31.5225 34.1929H23.0557C22.2763 34.1929 21.6445 33.5789 21.6445 32.8215Z" fill="url(#paint2_linear_107_15)"/>
<defs>
<linearGradient id="paint0_linear_107_15" x1="22.049" y1="17.5216" x2="45.4362" y2="17.5061" gradientUnits="userSpaceOnUse">
<stop stop-color="#AE67FA"/>
<stop offset="0.973958" stop-color="#F49867"/>
</linearGradient>
<linearGradient id="paint1_linear_107_15" x1="16.4045" y1="26.0697" x2="39.7917" y2="26.0537" gradientUnits="userSpaceOnUse">
<stop stop-color="#AE67FA"/>
<stop offset="0.973958" stop-color="#F49867"/>
</linearGradient>
<linearGradient id="paint2_linear_107_15" x1="21.8468" y1="31.6635" x2="33.5403" y2="31.6358" gradientUnits="userSpaceOnUse">
<stop stop-color="#AE67FA"/>
<stop offset="0.973958" stop-color="#F49867"/>
</linearGradient>
</defs>
</svg>
