<svg width="60" height="60" viewBox="0 0 60 60" fill="none" xmlns="http://www.w3.org/2000/svg">
<rect width="60" height="60" rx="30" fill="#ECEEFF"/>
<path fill-rule="evenodd" clip-rule="evenodd" d="M16 20.2C16 17.8804 17.9087 16 20.2632 16H34.4737C36.3299 16 37.909 17.1687 38.4943 18.8H38.7368C41.0913 18.8 43 20.6804 43 23V25.6045C43 27.6066 41.5656 29.3304 39.5729 29.723L29.9318 31.6226C29.2676 31.7535 28.7895 32.3281 28.7895 32.9955V33.1746C29.639 33.6587 30.2105 34.5636 30.2105 35.6V41.2C30.2105 42.7464 28.9381 44 27.3684 44C25.7988 44 24.5263 42.7464 24.5263 41.2V35.6C24.5263 34.5636 25.0979 33.6587 25.9474 33.1746V32.9955C25.9474 30.9934 27.3817 29.2696 29.3745 28.877L39.0155 26.9774C39.6798 26.8465 40.1579 26.2719 40.1579 25.6045V23C40.1579 22.2268 39.5217 21.6 38.7368 21.6C38.7368 23.9196 36.8282 25.8 34.4737 25.8H20.2632C17.9087 25.8 16 23.9196 16 21.6V20.2ZM35.8947 20.2C35.8947 19.4268 35.2585 18.8 34.4737 18.8H20.2632C19.4783 18.8 18.8421 19.4268 18.8421 20.2V21.6C18.8421 22.3732 19.4783 23 20.2632 23H34.4737C35.2585 23 35.8947 22.3732 35.8947 21.6V20.2Z" fill="#3E4581"/>
<path fill-rule="evenodd" clip-rule="evenodd" d="M16 20.2C16 17.8804 17.9087 16 20.2632 16H34.4737C36.3299 16 37.909 17.1687 38.4943 18.8H38.7368C41.0913 18.8 43 20.6804 43 23V25.6045C43 27.6066 41.5656 29.3304 39.5729 29.723L29.9318 31.6226C29.2676 31.7535 28.7895 32.3281 28.7895 32.9955V33.1746C29.639 33.6587 30.2105 34.5636 30.2105 35.6V41.2C30.2105 42.7464 28.9381 44 27.3684 44C25.7988 44 24.5263 42.7464 24.5263 41.2V35.6C24.5263 34.5636 25.0979 33.6587 25.9474 33.1746V32.9955C25.9474 30.9934 27.3817 29.2696 29.3745 28.877L39.0155 26.9774C39.6798 26.8465 40.1579 26.2719 40.1579 25.6045V23C40.1579 22.2268 39.5217 21.6 38.7368 21.6C38.7368 23.9196 36.8282 25.8 34.4737 25.8H20.2632C17.9087 25.8 16 23.9196 16 21.6V20.2ZM35.8947 20.2C35.8947 19.4268 35.2585 18.8 34.4737 18.8H20.2632C19.4783 18.8 18.8421 19.4268 18.8421 20.2V21.6C18.8421 22.3732 19.4783 23 20.2632 23H34.4737C35.2585 23 35.8947 22.3732 35.8947 21.6V20.2Z" fill="url(#paint0_linear_107_62)"/>
<defs>
<linearGradient id="paint0_linear_107_62" x1="16.4837" y1="18.1778" x2="44.4512" y2="18.1622" gradientUnits="userSpaceOnUse">
<stop stop-color="#AE67FA"/>
<stop offset="0.973958" stop-color="#F49867"/>
</linearGradient>
</defs>
</svg>
